<?xml version="1.0" encoding="UTF-8" standalone="no"?>
<!-- Created with Inkscape (http://www.inkscape.org/) -->

<svg
   xmlns:svg="http://www.w3.org/2000/svg"
   xmlns="http://www.w3.org/2000/svg"
   version="1.1"
   width="600"
   height="600"
   id="svg2">
  <defs
     id="defs6" />
  <path
     d="m 220.9375,7.15625 0,150.21875 -130.09375,-75.125 -81.875,141.8125 130.09375,75.09375 -130.09375,75.125 81.875,141.8125 130.09375,-75.125 0,150.21875 163.75,0 0,-150.1875 130.0625,75.09375 81.875,-141.8125 -130.09375,-75.125 L 596.625,224.0625 514.75,82.25 l -130.0625,75.09375 0,-150.1875 -163.75,0 z"
     id="rect2818"
     style="fill:#ff0000;fill-opacity:1;stroke:none" />
  <path
     d="m 236.78125,23.03125 0,161.8125 -140.125,-80.90625 -66,114.34375 140.125,80.90625 -140.125,80.90625 66,114.3125 L 236.8125,413.5 l 0,161.8125 132,0 0,-161.8125 140.125,80.90625 66,-114.34375 -140.125,-80.90625 140.125,-80.90625 -66,-114.3125 -140.15625,80.90625 0,-161.8125 -132,0 z"
     id="path3694"
     style="fill:none;stroke:#ffffff;stroke-width:10;stroke-miterlimit:4" />
  <path
     d="m 303.22247,400.73403 0.96078,9.60781 0.76862,-8.26272 -1.7294,-1.34509 z m -0.57647,-25.74893 0.19216,13.64309 2.69018,5.76469 -0.19215,-15.94897 -2.69019,-3.45881 z m 0,-25.17246 0,13.64309 2.88234,2.30587 -0.19215,-14.21955 -2.69019,-1.72941 z m 0.19216,-31.32146 -0.19216,19.59993 2.69019,2.30588 0.19215,-21.13718 -2.69018,-0.76863 z m -1.53725,-32.09008 5.18821,0 0,21.9058 -4.8039,-1.7294 -0.38431,-20.1764 z m -2.30588,86.27813 c -5.16551,7.70402 -5.61155,16.0596 7.30194,27.86264 -2.75244,-4.35554 -5.77369,-8.13461 -6.53332,-12.49015 l -0.76862,-15.37249 z m -2.30587,-26.13325 c -4.61175,3.0745 -11.25986,14.17214 3.65097,24.21168 7.81424,5.26137 7.68624,9.79997 7.68624,9.79997 l 0.19216,12.87447 c 0,0 10.31784,-17.19088 -4.61175,-26.3254 -10.19472,-6.23754 -7.68625,-10.56859 -4.03528,-15.56465 l 0,-3.65097 -2.88234,-1.3451 z M 293.4225,314.4559 c -6.149,3.0745 -12.79545,18.73854 3.45882,29.01558 22.63259,14.30986 14.21955,16.14113 10.56858,21.5215 l 0.50526,2.92442 1.99278,1.30302 c 3.80902,-3.28939 16.86473,-15.28968 -5.57253,-27.6705 -19.68733,-10.86342 -11.13785,-20.28879 -5.38038,-23.2509 -1.65911,-0.88424 -3.40621,-1.94446 -5.57253,-3.84312 z m -11.75374,-30.22927 c -9.76646,7.18894 -5.82288,23.42266 15.78902,29.6528 29.60443,8.53417 16.07581,20.99633 9.99212,26.70971 1.04997,0.92186 2.10078,1.84457 3.65097,3.26666 13.55993,-10.53293 16.44112,-27.34969 -8.26271,-34.78027 -25.82473,-7.76773 -16.27885,-20.38258 -11.14506,-23.05875 -3.34145,-0.77053 -6.68289,-1.52159 -10.02434,-1.79015 z m 18.23563,-28.18621 0.0584,4.41959 -29.21468,0 c -9.21271,0 -7.07163,7.18628 -1.34509,10.18428 12.33642,6.45845 17.3862,5.95685 30.36067,5.95685 15.12445,0 32.28225,7.77036 32.28225,17.29405 0,8.26147 -8.15243,13.5604 -17.29406,18.25484 -1.84565,-1.64816 -3.73358,-2.67878 -5.57253,-3.84313 26.52302,-10.23558 8.03678,-24.01952 -5.95684,-24.01952 -14.77279,0 -28.23685,-2.91595 -37.66261,-9.41565 -13.72225,-9.46242 -6.31651,-18.83131 7.30193,-18.83131 l 27.0426,0 z m 7.93226,4.41959 0.13363,-4.41959 26.57365,0 c 10.78512,0 23.42437,6.5865 10.56859,17.1019 -6.89516,5.63991 -12.54333,6.18162 -19.02346,8.64703 -1.85796,-2.36978 -6.45291,-3.82723 -11.33722,-5.18822 l 0,0 c 32.39373,-3.11875 34.83807,-16.14112 22.67443,-16.14112 l -29.58962,0 z m -1.42903,14.49306 -4.78821,-0.007 -1.04331,-69.04336 c -2.58405,-1.25068 -4.36619,-3.89781 -4.36619,-6.96118 0,-4.26871 3.46048,-7.72918 7.72919,-7.72918 4.26871,0 7.72919,3.46047 7.72919,7.72918 0,3.00415 -1.7139,5.60799 -4.21723,6.88708 l -1.04344,69.12462 z M 310.46632,225 c 0,0 6.32544,2.19335 10.71429,-9.28571 5.9416,-15.54032 12.38316,-11.95711 30.28571,-2.71429 11.90845,6.14816 27.51231,13.49219 39.5,7.5 4.74418,-2.37144 4.85206,0.97455 3.5,3.5 -2.99826,5.60031 -10,6.78571 -14,6.5 0.28571,7.14286 -13.5,3 -13.5,3 -0.57143,7.28571 -7.71429,5.42857 -12,5 -2.85714,6.28571 -8.78571,4.42857 -13.5,3 -3.71429,6.14286 -9.85714,2.71428 -13.28571,0.71429 -7,7.28571 -17.71429,1.28571 -17.71429,1.28571 l 0,-18.5 z M 297.5,225 c 0,0 -6.32544,2.19335 -10.71429,-9.28571 C 280.84411,200.17397 274.40255,203.75718 256.5,213 c -11.90845,6.14816 -27.51231,13.49219 -39.5,7.5 -4.74418,-2.37144 -4.85206,0.97455 -3.5,3.5 2.99826,5.60031 10,6.78571 14,6.5 -0.28571,7.14286 13.5,3 13.5,3 0.57143,7.28571 7.71429,5.42857 12,5 2.85714,6.28571 8.78571,4.42857 13.5,3 3.71429,6.14286 9.85714,2.71428 13.28571,0.71429 C 286.78571,249.5 297.5,243.5 297.5,243.5 l 0,-18.5 z"
     id="path3829"
     style="fill:#0000ff;fill-opacity:1;stroke:none" />
</svg>
